<?xml version="1.0" encoding="utf-8"?>
<!-- Generator: Adobe Illustrator 26.0.2, SVG Export Plug-In . SVG Version: 6.00 Build 0)  -->
<svg version="1.1" id="Layer_1" xmlns="http://www.w3.org/2000/svg" xmlns:xlink="http://www.w3.org/1999/xlink" x="0px" y="0px"
	 viewBox="0 0 288 576" style="enable-background:new 0 0 288 576;" xml:space="preserve">
<style type="text/css">
	.st0{fill:#30DDF9;}
	.st1{font-family:'AcierBATText-Solid';}
	.st2{font-size:21px;}
	.st3{fill:#D3D9BF;}
	.st4{fill:none;stroke:#000000;stroke-width:0.25;stroke-miterlimit:10;}
	.st5{fill:none;stroke:#000000;stroke-width:0.5;stroke-miterlimit:10;}
	.st6{fill:none;}
	.st7{fill:#FAB14E;stroke:#000000;stroke-width:0.25;stroke-miterlimit:10;}
	.st8{fill:#F8AF4B;stroke:#231F20;stroke-width:0.25;stroke-miterlimit:10;}
	.st9{fill:#726658;stroke:#000000;stroke-width:0.25;stroke-miterlimit:10;}
	.st10{fill:#D3D9BF;stroke:#231F20;stroke-width:0.25;stroke-miterlimit:10;}
	.st11{fill:#FFFFFF;stroke:#000000;stroke-width:0.25;stroke-miterlimit:10;}
	.st12{fill:#231F20;}
	.st13{fill:#9B8579;stroke:#231F20;stroke-width:0.25;stroke-miterlimit:10;}
	.st14{fill:none;stroke:#231F20;stroke-width:0.25;stroke-miterlimit:10;}
	.st15{fill:#F3978A;}
	.st16{font-size:8px;}
	.st17{fill:none;stroke:#231F20;stroke-width:0.5;stroke-miterlimit:10;}
	.st18{font-family:'Bilo-Light';}
	.st19{font-size:10px;}
</style>
<ellipse class="st0" cx="74" cy="119.2" rx="19.9" ry="26"/>
<text transform="matrix(1 0 0 1 102.289 122.7299)" class="st1 st2">Trinidad Cuba</text>
<polygon class="st3" points="67.6,140.6 67.6,127.8 66.9,126.5 81.4,126.2 81.7,126.3 80.9,128.1 80.9,140.4 80.9,140.6 "/>
<polygon class="st3" points="68.4,102.8 70.2,102.5 71.9,102.1 73.5,102.1 76.1,102.1 77.1,102.1 77.8,102.3 78.9,102.5 79.8,102.6 
	80.1,102.7 79.6,103.4 79.7,105.5 79.7,107 76.3,107.1 72.2,107.2 69,107.2 68.7,107.1 68.7,103.1 "/>
<polygon class="st3" points="67.6,108.4 69.1,108 75.9,108 79.2,107.9 80.7,108.2 79.9,109.1 79.9,109.5 79.9,110.2 79.9,111.4 
	79.9,113 80,114.6 80,118 80.1,119.6 80.1,121.8 80.1,124.9 68.2,125.1 68.3,124.1 68.4,122 68.4,119 68.3,115.9 68.3,112.9 
	68.2,110.2 "/>
<polyline class="st4" points="68.8,107.1 67.5,108.3 68.2,110.2 68.3,124.2 68.2,125.1 "/>
<polyline class="st5" points="66.8,126.4 72.6,126.3 77.8,126.2 81,126.2 81.8,126.3 80.2,125 "/>
<path class="st6" d="M74.1,103.2"/>
<ellipse class="st5" cx="74" cy="132.7" rx="1.7" ry="1.2"/>
<path class="st7" d="M76.9,122.2l-0.1-3.4c-0.4-2.5-2.6-2.1-2.6-2.1c-1.9,0.1-2.5,2.2-2.5,2.2l0,3.4l-1,0l-0.1-12.7l7.1-0.1
	l0.1,12.9L76.9,122.2z"/>
<polygon class="st8" points="72.7,103 72.7,107.2 75.6,107.1 75.5,102.9 "/>
<polygon class="st8" points="69.5,107.2 69.3,103.4 71.4,103 71.4,107.2 "/>
<polygon class="st8" points="76.8,107 76.9,102.9 79.1,103.3 79.1,106.9 "/>
<polyline class="st4" points="68.2,102.7 69.3,102.7 71.7,102.1 73.2,102 75.7,102 76.8,102 77.6,102.2 79.1,102.5 80.2,102.6 "/>
<polyline class="st5" points="67.5,108.3 69.1,108 79.1,107.8 80.8,108.2 "/>
<ellipse class="st9" cx="74.1" cy="104.7" rx="1.4" ry="1.5"/>
<path class="st10" d="M71.8,115.7v-4.2c0,0,0.5-1.9,2.2-1.9c0,0,1.6-0.1,2.3,1.5l0.2,4.6L71.8,115.7z"/>
<path class="st11" d="M72.8,115.1l0-3.6c0,0,0.1-1,1.2-0.9c0,0,1.2-0.3,1.3,1.6v2.9L72.8,115.1z"/>
<path class="st11" d="M72.6,125l0.1-6.5c0,0,0.3-1.1,1.6-1.2c0,0,1.7-0.1,1.8,1.6l0.1,6.1"/>
<rect x="72.7" y="119.8" class="st12" width="3.3" height="0.3"/>
<path class="st13" d="M74,121.4l-0.3,0.2c0,0,0,1.4-0.6,1.8l2.4,0.1c0,0-0.8-1-0.6-2l-0.4-0.2L74,121.4L74,121.4z"/>
<line class="st14" x1="74.1" y1="120.1" x2="74" y2="121.4"/>
<line class="st14" x1="74.5" y1="120.1" x2="74.5" y2="121.4"/>
<polygon class="st7" points="69.7,127.9 78.6,127.8 78.8,140.6 69.8,140.7 "/>
<polygon class="st15" points="68.6,102.6 69.9,102 72.7,101.5 75.6,101.4 78.7,101.9 79.8,102.5 78.9,102.4 76.8,101.9 76,101.9 
	72.5,102 71.8,102 70,102.4 69.3,102.6 "/>
<path class="st15" d="M70,101.8c0,0,0-0.6,0.3-1.4c0.3-1.1,1-2.7,1.7-3.1c0,0,0.8-1.1,1.6-1.3c0,0,0.6-0.6,1.6,0
	c0,0,1.1,0.5,1.5,1.3l0.6,1l0.5,1l0.4,0.9l0.4,1.3l0.1,0.3l-3-0.4l-0.5,0l-1.1,0l-1.1,0l-0.8,0.1l-1.2,0.2L70,101.8z"/>
<polygon class="st15" points="67.8,108.2 68.7,107.3 79.6,107.1 80.8,108.1 79.1,107.8 69.1,108 "/>
<polygon class="st15" points="66.9,126.3 66.8,126.1 68.2,125.1 80.2,125.1 81.6,126.1 80.2,126.1 70.2,126.3 "/>
<path class="st4" d="M81.8,126.3l-0.9,1.8v12.7l-13.4,0l0.1-12.8l-0.9-1.8l1.4-1.1l12-0.1l-0.3-15.9l0.9-1.1l-1.3-1l-10.9,0.2v-4
	l-0.6-0.5l1.8-0.8c0,0,0.5-4.7,4.1-6.2c0,0,2.9-0.7,4.7,6.1l1.5,0.8l-0.5,0.8l0.1,3.9"/>
<polyline class="st4" points="69.9,101.9 72.7,101.4 75.6,101.3 78.7,101.8 "/>
<text transform="matrix(1 0 0 1 70.8981 133.456)" class="st1 st16">15</text>
<text transform="matrix(1 0 0 1 70.9981 139.0916)" class="st1 st16">14</text>
<path class="st17" d="M134.3,58.2V38.4c0,0,2.4-8.7,10.4-9c0,0,7.7-0.6,10.9,6.8l0,22.1L134.3,58.2z"/>
<polygon class="st4" points="140.4,39.6 142,39.3 143.3,39 144.6,39 146.8,38.9 147.6,39 148.3,39.1 149.1,39.3 149.9,39.4 
	150.1,39.4 149.8,40.1 149.8,41.8 149.9,43.1 147,43.1 143.6,43.2 140.9,43.2 140.7,43.1 140.7,39.8 "/>
<polyline class="st4" points="140.8,43.1 139.7,44.1 140.3,45.7 140.4,57.4 140.2,58.1 "/>
<path class="st4" d="M145.2,39.9"/>
<path class="st4" d="M147.5,55.7l-0.1-2.9c-0.3-2-2.1-1.8-2.1-1.8c-1.6,0.1-1.9,1.6-1.9,1.6l-0.1,3l-0.8,0l-0.1-10.6l5.9-0.1
	l0.1,10.7L147.5,55.7z"/>
<polygon class="st4" points="144,39.7 144,43.2 146.5,43.2 146.4,39.6 "/>
<polygon class="st4" points="141.3,43.2 141.2,40.1 142.9,39.7 142.9,43.2 "/>
<polygon class="st4" points="147.5,43 147.5,39.6 149.4,40 149.4,43 "/>
<polyline class="st6" points="140.2,39.5 141.2,39.4 143.2,38.9 144.4,38.9 146.5,38.9 147.4,38.9 148.1,39 149.3,39.3 150.2,39.4 
	"/>
<polyline class="st4" points="139.7,44.1 141,43.9 149.4,43.7 150.7,44 "/>
<ellipse class="st4" cx="145.2" cy="41.1" rx="1.2" ry="1.2"/>
<path class="st4" d="M143.3,50.6V47c0,0,0.4-1.6,1.9-1.6c0,0,1.4-0.1,1.9,1.2l0.1,3.8L143.3,50.6z"/>
<path class="st11" d="M144.2,50.1l0-3c0,0,0.1-0.8,1-0.7c0,0,1-0.2,1.1,1.3v2.4L144.2,50.1z"/>
<path class="st11" d="M143.9,58l0-5.4c0,0,0.2-0.9,1.3-1c0,0,1.4-0.1,1.5,1.3l0.1,5"/>
<path class="st4" d="M141.8,38.8c0,0,0-0.5,0.2-1.1c0.3-1,0.8-2.2,1.4-2.6c0,0,0.7-0.9,1.3-1.1c0,0,0.5-0.5,1.4,0
	c0,0,0.9,0.4,1.2,1.1l0.5,0.8l0.4,0.8l0.3,0.8l0.3,1l0.1,0.2l-2.5-0.3l-0.4,0l-0.9,0l-0.9,0l-0.7,0.1l-1,0.2L141.8,38.8z"/>
<polygon class="st6" points="139.9,44 140.7,43.3 149.7,43.2 150.7,44 149.3,43.7 141,43.9 "/>
<path class="st4" d="M140.2,58.1l9.9,0.1L150,44.8l0.8-0.9l-1-0.8l-9,0.2v-3.3l-0.5-0.4l1.5-0.7c0,0,0.4-3.9,3.4-5.1
	c0,0,2.4-0.6,3.9,5l1.2,0.6l-0.4,0.7l0.1,3.2"/>
<polyline class="st6" points="141.7,38.8 144,38.4 146.4,38.3 149,38.7 "/>
<text transform="matrix(1 0 0 1 126.7956 68.3928)"><tspan x="0" y="0" class="st18 st19">Trinidad</tspan><tspan x="4" y="9" class="st1 st19"> Cuba</tspan></text>
<path class="st17" d="M32.7,58.3V38.5c0,0,2.4-8.7,10.4-9c0,0,7.7-0.6,10.9,6.8l0,22.1L32.7,58.3z"/>
<polygon class="st4" points="38.8,39.6 40.4,39.4 41.7,39.1 43,39.1 45.2,39 46,39 46.7,39.2 47.5,39.4 48.3,39.5 48.6,39.5 
	48.2,40.2 48.2,41.9 48.3,43.2 45.4,43.2 42,43.3 39.3,43.3 39.1,43.2 39.1,39.9 "/>
<polyline class="st4" points="39.2,43.2 38.1,44.2 38.7,45.8 38.8,57.5 38.6,58.2 "/>
<path class="st4" d="M43.6,40"/>
<path class="st4" d="M45.9,55.7l-0.1-2.9c-0.3-2-2.1-1.8-2.1-1.8c-1.6,0.1-1.9,1.6-1.9,1.6l-0.1,3l-0.8,0l-0.1-10.6l5.9-0.1
	l0.1,10.7L45.9,55.7z"/>
<polygon class="st4" points="42.4,39.8 42.4,43.3 44.9,43.2 44.8,39.7 "/>
<polygon class="st4" points="39.7,43.3 39.6,40.1 41.3,39.8 41.3,43.3 "/>
<polygon class="st4" points="45.9,43.1 45.9,39.7 47.8,40.1 47.8,43.1 "/>
<polyline class="st6" points="38.6,39.6 39.6,39.5 41.6,39 42.8,39 44.9,39 45.8,39 46.5,39.1 47.7,39.4 48.6,39.4 "/>
<polyline class="st4" points="38.1,44.2 39.4,44 47.8,43.8 49.1,44.1 "/>
<ellipse class="st4" cx="43.6" cy="41.2" rx="1.2" ry="1.2"/>
<path class="st4" d="M41.7,50.7v-3.5c0,0,0.4-1.6,1.9-1.6c0,0,1.4-0.1,1.9,1.2l0.1,3.8L41.7,50.7z"/>
<path class="st11" d="M42.6,50.2l0-3c0,0,0.1-0.8,1-0.7c0,0,1-0.2,1.1,1.3v2.4L42.6,50.2z"/>
<path class="st11" d="M42.3,58.1l0-5.4c0,0,0.2-0.9,1.3-1c0,0,1.4-0.1,1.5,1.3l0.1,5"/>
<path class="st4" d="M40.2,38.9c0,0,0-0.5,0.2-1.1c0.3-1,0.8-2.2,1.4-2.6c0,0,0.7-0.9,1.3-1.1c0,0,0.5-0.5,1.4,0
	c0,0,0.9,0.4,1.2,1.1l0.5,0.8l0.4,0.8l0.3,0.8l0.3,1l0.1,0.2l-2.5-0.3l-0.4,0l-0.9,0l-0.9,0l-0.7,0.1l-1,0.2L40.2,38.9z"/>
<polygon class="st6" points="38.3,44.1 39.1,43.4 48.1,43.2 49.1,44 47.7,43.8 39.4,43.9 "/>
<path class="st4" d="M38.6,58.2l9.9,0.1l-0.1-13.3l0.8-0.9l-1-0.8l-9,0.2V40l-0.5-0.4l1.5-0.7c0,0,0.4-3.9,3.4-5.1
	c0,0,2.4-0.6,3.9,5l1.2,0.6l-0.4,0.7l0.1,3.2"/>
<polyline class="st6" points="40.1,38.9 42.4,38.5 44.8,38.4 47.4,38.8 "/>
<text transform="matrix(1 0 0 1 57.8741 48.9617)"><tspan x="0" y="0" class="st18 st19">Trinidad</tspan><tspan x="0" y="9" class="st1 st19">Cuba</tspan></text>
</svg>
