<svg id="Layer_1" data-name="Layer 1" xmlns="http://www.w3.org/2000/svg" viewBox="0 0 56.16 23.83"><defs><style>.cls-1,.cls-2,.cls-3{fill:none;}.cls-1{stroke:#231f20;stroke-width:0.5px;}.cls-1,.cls-2{stroke-miterlimit:10;}.cls-2{stroke:#000;stroke-width:0.25px;}</style></defs><path class="cls-1" d="M34.56,17.25V34.18L18.3,34.05V17.27s-.45-6.69,8.59-6.41C26.89,10.86,34.34,10.25,34.56,17.25Z" transform="translate(-18.04 -10.6)"/><polygon class="cls-2" points="4.93 9.21 6.13 9 7.17 8.77 8.17 8.77 9.85 8.73 10.46 8.74 10.97 8.87 11.61 9.03 12.22 9.09 12.38 9.12 12.1 9.61 12.12 10.9 12.16 11.9 9.96 11.94 7.35 11.99 5.31 12.03 5.17 11.95 5.17 9.43 4.93 9.21"/><polyline class="cls-2" points="5.22 11.94 4.4 12.72 4.84 13.94 4.89 22.84 4.8 23.38"/><path class="cls-2" d="M26.64,20.05" transform="translate(-18.04 -10.6)"/><path class="cls-2" d="M28.38,32.12l-.06-2.19a1.43,1.43,0,0,0-1.63-1.35,1.58,1.58,0,0,0-1.48,1.22l-.11,2.3h-.64L24.38,24l4.53-.08.09,8.2Z" transform="translate(-18.04 -10.6)"/><polygon class="cls-2" points="7.68 9.31 7.68 12 9.56 11.96 9.48 9.27 7.68 9.31"/><polygon class="cls-2" points="5.63 12.02 5.55 9.59 6.85 9.33 6.87 12 5.63 12.02"/><polygon class="cls-2" points="10.32 11.86 10.38 9.24 11.78 9.53 11.78 11.83 10.32 11.86"/><polyline class="cls-3" points="4.8 9.16 5.5 9.12 7.09 8.74 8.01 8.72 9.58 8.7 10.3 8.7 10.84 8.8 11.75 9 12.44 9.05"/><polyline class="cls-2" points="4.4 12.72 5.42 12.55 11.79 12.41 12.82 12.62"/><ellipse class="cls-2" cx="8.58" cy="10.42" rx="0.89" ry="0.93"/><path class="cls-2" d="M25.2,28.23v-2.7a1.69,1.69,0,0,1,1.42-1.23,1.56,1.56,0,0,1,1.49.93l.11,2.94Z" transform="translate(-18.04 -10.6)"/><path class="cls-2" d="M25.85,27.84V25.56a.7.7,0,0,1,.79-.56s.77-.17.85,1v1.85Z" transform="translate(-18.04 -10.6)"/><path class="cls-2" d="M25.68,33.94l0-4.11a1.13,1.13,0,0,1,1-.78,1,1,0,0,1,1.12,1l.08,3.86" transform="translate(-18.04 -10.6)"/><path class="cls-2" d="M24,19.23a4.12,4.12,0,0,1,.16-.87,4.36,4.36,0,0,1,1.07-2,2.89,2.89,0,0,1,1-.86.89.89,0,0,1,1,0,2.25,2.25,0,0,1,.94.82l.38.62.32.63.22.6.25.79,0,.17-1.9-.24-.33,0-.72,0-.7,0-.53.08-.76.15Z" transform="translate(-18.04 -10.6)"/><polygon class="cls-3" points="4.56 12.63 5.15 12.09 12.07 11.96 12.83 12.57 11.76 12.36 5.41 12.5 4.56 12.63"/><path class="cls-2" d="M22.85,34l7.57.06-.09-10.19.6-.7-.8-.64-6.91.13V20.09l-.38-.33L24,19.25s.29-3,2.61-3.94c0,0,1.82-.44,3,3.86l.95.48-.31.51.06,2.48" transform="translate(-18.04 -10.6)"/><polyline class="cls-3" points="5.92 8.65 7.68 8.32 9.53 8.26 11.5 8.57"/><path d="M40.59,16.48H38.28V16h5.29v.53H41.26V23.1h-.67Z" transform="translate(-18.04 -10.6)"/><path d="M44.27,18.48h.2a1,1,0,0,0,.41-.05v1.1a1.47,1.47,0,0,1,1.46-1.14,1.14,1.14,0,0,1,1.18.87l-.5.33c-.19-.48-.43-.67-.85-.67-.75,0-1.29.57-1.29,1.6V23.1h-.61Z" transform="translate(-18.04 -10.6)"/><path d="M48.29,16.86a.47.47,0,0,1,.93,0,.47.47,0,0,1-.93,0Zm.16,1.62h.19a1,1,0,0,0,.41-.05V23.1h-.6Z" transform="translate(-18.04 -10.6)"/><path d="M50.82,18.48H51a1,1,0,0,0,.41-.05v1.09a1.8,1.8,0,0,1,1.78-1.13A1.43,1.43,0,0,1,54.77,20V23.1h-.61v-3c0-.84-.36-1.17-1.11-1.17a1.5,1.5,0,0,0-1.62,1.59V23.1h-.61Z" transform="translate(-18.04 -10.6)"/><path d="M56.36,16.86a.45.45,0,0,1,.46-.46.45.45,0,0,1,.46.46.44.44,0,0,1-.46.45A.44.44,0,0,1,56.36,16.86Zm.15,1.62h.2a1,1,0,0,0,.41-.05V23.1h-.61Z" transform="translate(-18.04 -10.6)"/><path d="M58.53,20.79a2.35,2.35,0,0,1,2.19-2.4,1.92,1.92,0,0,1,1.8,1.31V16h.19a.83.83,0,0,0,.42-.06V23.1h-.61V21.88a1.91,1.91,0,0,1-1.8,1.3A2.34,2.34,0,0,1,58.53,20.79Zm4,0a1.7,1.7,0,1,0-1.67,1.87A1.78,1.78,0,0,0,62.53,20.79Z" transform="translate(-18.04 -10.6)"/><path d="M64.51,22c0-.95.88-1.25,2-1.35.85-.09,1.12-.18,1.12-.75s-.34-1-1.1-1a1.36,1.36,0,0,0-1.35.7l-.43-.25a1.91,1.91,0,0,1,1.85-.95A1.44,1.44,0,0,1,68.22,20V23.1h-.6v-.87a1.6,1.6,0,0,1-1.63.95C65.08,23.18,64.51,22.74,64.51,22Zm3.1-.68v-.72c-.16.31-.44.39-1,.46-.84.09-1.45.26-1.45.9s.35.8,1,.8A1.35,1.35,0,0,0,67.61,21.29Z" transform="translate(-18.04 -10.6)"/><path d="M69.61,20.79a2.35,2.35,0,0,1,2.19-2.4,1.92,1.92,0,0,1,1.8,1.31V16h.19a.83.83,0,0,0,.42-.06V23.1H73.6V21.88a1.91,1.91,0,0,1-1.8,1.3A2.34,2.34,0,0,1,69.61,20.79Zm4,0a1.7,1.7,0,1,0-1.67,1.87A1.78,1.78,0,0,0,73.61,20.79Z" transform="translate(-18.04 -10.6)"/><path d="M42.22,26.14A3.63,3.63,0,0,1,45,27.33l-1.1,1a2.43,2.43,0,0,0-1.69-.73,2,2,0,0,0,0,3.93,2.43,2.43,0,0,0,1.69-.73l1.06,1a3.7,3.7,0,0,1-2.75,1.19,3.47,3.47,0,1,1,0-6.93Z" transform="translate(-18.04 -10.6)"/><path d="M45.78,26.35h1.58v4.08c0,.87.41,1.17,1,1.17s1-.3,1-1.17V26.35h1.6v4.32a2.36,2.36,0,0,1-2.58,2.4,2.34,2.34,0,0,1-2.55-2.4Z" transform="translate(-18.04 -10.6)"/><path d="M52,26.35h2.62a1.88,1.88,0,0,1,2,1.82,1.56,1.56,0,0,1-.7,1.34v0a1.83,1.83,0,0,1,1,1.6,1.79,1.79,0,0,1-2,1.73H52Zm2.34,2.59a.6.6,0,1,0,0-1.2h-.76v1.2Zm.21,2.5a.55.55,0,0,0,.6-.57.57.57,0,0,0-.6-.57h-1v1.14Z" transform="translate(-18.04 -10.6)"/><path d="M60,26.14h.28l3.18,6.72H61.79l-.32-.68H58.9l-.32.68H56.87Zm.88,4.91-.74-1.65h0l-.76,1.65Z" transform="translate(-18.04 -10.6)"/></svg>