<svg id="Layer_1" data-name="Layer 1" xmlns="http://www.w3.org/2000/svg" viewBox="0 0 52.66 27.89"><defs><style>.cls-1{fill:#fff;stroke:#231f20;stroke-width:0.5px;}.cls-1,.cls-2{stroke-miterlimit:10;}.cls-2,.cls-3{fill:none;}.cls-2{stroke:#000;stroke-width:0.25px;}</style></defs><path class="cls-1" d="M34.72,16.75V36.61l-19.09-.14V16.77S15.1,8.91,25.71,9.24C25.71,9.24,34.46,8.53,34.72,16.75Z" transform="translate(-15.38 -8.98)"/><polygon class="cls-2" points="5.75 10.76 7.15 10.52 8.37 10.25 9.55 10.25 11.52 10.2 12.24 10.22 12.83 10.37 13.58 10.55 14.3 10.62 14.49 10.66 14.16 11.24 14.18 12.75 14.24 13.93 11.64 13.97 8.59 14.03 6.19 14.08 6.02 13.98 6.02 11.02 5.75 10.76"/><polyline class="cls-2" points="6.09 13.98 5.12 14.88 5.63 16.32 5.7 26.77 5.59 27.4"/><path class="cls-2" d="M25.42,20" transform="translate(-15.38 -8.98)"/><path class="cls-2" d="M27.47,34.2l-.07-2.57A1.7,1.7,0,0,0,25.48,30a1.86,1.86,0,0,0-1.74,1.43l-.12,2.71h-.76l-.09-9.51,5.31-.09.11,9.63Z" transform="translate(-15.38 -8.98)"/><polygon class="cls-2" points="8.98 10.88 8.98 14.05 11.19 14 11.09 10.84 8.98 10.88"/><polygon class="cls-2" points="6.56 14.06 6.47 11.21 8 10.91 8.02 14.04 6.56 14.06"/><polygon class="cls-2" points="12.08 13.88 12.14 10.81 13.79 11.15 13.79 13.85 12.08 13.88"/><polyline class="cls-3" points="5.59 10.71 6.42 10.66 8.28 10.22 9.36 10.2 11.2 10.17 12.05 10.16 12.68 10.29 13.75 10.52 14.56 10.59"/><polyline class="cls-2" points="5.12 14.88 6.32 14.68 13.79 14.53 15 14.77"/><ellipse class="cls-2" cx="10.03" cy="12.18" rx="1.04" ry="1.09"/><path class="cls-2" d="M23.74,29.63V26.47A2,2,0,0,1,25.4,25a1.82,1.82,0,0,1,1.75,1.1l.12,3.45Z" transform="translate(-15.38 -8.98)"/><path class="cls-2" d="M24.5,29.18V26.51a.82.82,0,0,1,.93-.67s.9-.2,1,1.18v2.17Z" transform="translate(-15.38 -8.98)"/><path class="cls-2" d="M24.29,36.34l0-4.83a1.33,1.33,0,0,1,1.21-.91,1.19,1.19,0,0,1,1.31,1.2l.1,4.53" transform="translate(-15.38 -8.98)"/><path class="cls-2" d="M22.34,19.07a4.91,4.91,0,0,1,.2-1,5.08,5.08,0,0,1,1.25-2.33,3.49,3.49,0,0,1,1.2-1,1,1,0,0,1,1.22,0,2.59,2.59,0,0,1,1.11.95l.44.73.37.74.27.7.28.94.07.2-2.23-.29-.4,0-.84,0-.82,0-.62.09-.9.18Z" transform="translate(-15.38 -8.98)"/><polygon class="cls-3" points="5.31 14.79 6 14.15 14.12 13.99 15.02 14.71 13.76 14.47 6.31 14.63 5.31 14.79"/><path class="cls-2" d="M21,36.38l8.89.07-.11-12,.71-.82-.94-.75-8.12.15v-3L21,19.69l1.31-.6s.33-3.49,3.06-4.62c0,0,2.14-.52,3.49,4.53l1.11.57-.36.59.07,2.91" transform="translate(-15.38 -8.98)"/><polyline class="cls-3" points="6.9 10.12 8.97 9.73 11.14 9.66 13.45 10.02"/><path d="M40.19,19.92H38.28v-.44h4.38v.44H40.75v5.49h-.56Z" transform="translate(-15.38 -8.98)"/><path d="M43.24,21.59h.16a.73.73,0,0,0,.35-.05v.92A1.21,1.21,0,0,1,45,21.51a1,1,0,0,1,1,.72l-.42.27c-.16-.39-.36-.56-.71-.56-.62,0-1.06.48-1.06,1.33v2.14h-.51Z" transform="translate(-15.38 -8.98)"/><path d="M46.57,20.24a.39.39,0,1,1,.38.38A.38.38,0,0,1,46.57,20.24Zm.13,1.35h.16a.68.68,0,0,0,.34-.05v3.87h-.5Z" transform="translate(-15.38 -8.98)"/><path d="M48.67,21.59h.16a.66.66,0,0,0,.34-.05v.91a1.5,1.5,0,0,1,1.47-.94,1.19,1.19,0,0,1,1.3,1.35v2.55h-.51V22.92c0-.69-.29-1-.91-1a1.25,1.25,0,0,0-1.35,1.32v2.14h-.5Z" transform="translate(-15.38 -8.98)"/><path d="M53.26,20.24a.37.37,0,0,1,.37-.38.37.37,0,0,1,.39.38.38.38,0,0,1-.39.38A.37.37,0,0,1,53.26,20.24Zm.12,1.35h.16a.68.68,0,0,0,.34-.05v3.87h-.5Z" transform="translate(-15.38 -8.98)"/><path d="M55.05,23.5a2,2,0,0,1,1.82-2,1.59,1.59,0,0,1,1.49,1.08V19.48h.16a.69.69,0,0,0,.34,0v6h-.5v-1a1.59,1.59,0,0,1-1.49,1.08A1.94,1.94,0,0,1,55.05,23.5Zm3.31,0A1.41,1.41,0,1,0,57,25.05,1.47,1.47,0,0,0,58.36,23.5Z" transform="translate(-15.38 -8.98)"/><path d="M60,24.48c0-.79.73-1,1.63-1.13.71-.07.94-.14.94-.62s-.29-.8-.92-.8a1.11,1.11,0,0,0-1.11.57l-.36-.21a1.58,1.58,0,0,1,1.53-.78,1.2,1.2,0,0,1,1.36,1.32v2.58h-.49v-.72a1.35,1.35,0,0,1-1.36.79C60.48,25.48,60,25.11,60,24.48Zm2.57-.57v-.59c-.14.25-.37.32-.87.37-.7.08-1.21.22-1.21.75s.29.66.84.66A1.12,1.12,0,0,0,62.58,23.91Z" transform="translate(-15.38 -8.98)"/><path d="M64.23,23.5a2,2,0,0,1,1.81-2,1.58,1.58,0,0,1,1.49,1.08V19.48h.17a.71.71,0,0,0,.34,0v6h-.51v-1A1.58,1.58,0,0,1,66,25.48,1.94,1.94,0,0,1,64.23,23.5Zm3.31,0a1.41,1.41,0,1,0-1.38,1.55A1.47,1.47,0,0,0,67.54,23.5Z" transform="translate(-15.38 -8.98)"/><path d="M41.54,27.93a3,3,0,0,1,2.31,1l-.91.87a2,2,0,0,0-1.4-.61,1.63,1.63,0,0,0,0,3.25,2,2,0,0,0,1.4-.6l.88.86a3,3,0,0,1-2.28,1,2.87,2.87,0,1,1,0-5.74Z" transform="translate(-15.38 -8.98)"/><path d="M44.49,28.11H45.8v3.37c0,.72.34,1,.8,1s.82-.25.82-1V28.11h1.32v3.57a2,2,0,0,1-2.14,2,1.93,1.93,0,0,1-2.11-2Z" transform="translate(-15.38 -8.98)"/><path d="M49.6,28.11h2.17a1.55,1.55,0,0,1,1.62,1.5,1.3,1.3,0,0,1-.58,1.11v0a1.52,1.52,0,0,1,.79,1.32A1.48,1.48,0,0,1,52,33.49H49.6Zm1.94,2.14a.49.49,0,0,0,.52-.5.49.49,0,0,0-.52-.5h-.63v1Zm.17,2.07a.45.45,0,0,0,.5-.47.47.47,0,0,0-.5-.48h-.8v.95Z" transform="translate(-15.38 -8.98)"/><path d="M56.3,27.93h.23l2.64,5.56H57.75l-.27-.56H55.36l-.26.56H53.68ZM57,32l-.62-1.36h0L55.77,32Z" transform="translate(-15.38 -8.98)"/></svg>