<svg id="Layer_1" data-name="Layer 1" xmlns="http://www.w3.org/2000/svg" viewBox="0 0 53.55 19.72"><defs><style>.cls-1,.cls-2,.cls-3{fill:none;}.cls-1{stroke:#231f20;stroke-width:0.5px;}.cls-1,.cls-2{stroke-miterlimit:10;}.cls-2{stroke:#000;stroke-width:0.25px;}</style></defs><path class="cls-1" d="M34.09,18.79V32.51l-13.18-.1V18.81s-.37-5.43,7-5.2C27.87,13.61,33.91,13.12,34.09,18.79Z" transform="translate(-20.66 -13.35)"/><polygon class="cls-2" points="4.05 7.51 5.01 7.34 5.86 7.15 6.67 7.16 8.03 7.12 8.53 7.13 8.94 7.24 9.46 7.36 9.95 7.41 10.09 7.44 9.86 7.84 9.87 8.88 9.91 9.7 8.12 9.72 6.01 9.76 4.35 9.8 4.23 9.73 4.23 7.69 4.05 7.51"/><polyline class="cls-2" points="4.28 9.73 3.61 10.36 3.97 11.35 4.01 18.56 3.94 19"/><path class="cls-2" d="M27.67,21.05" transform="translate(-20.66 -13.35)"/><path class="cls-2" d="M29.08,30.84l0-1.77A1.17,1.17,0,0,0,27.71,28a1.27,1.27,0,0,0-1.2,1l-.08,1.87H25.9l-.06-6.57,3.67-.07.08,6.65Z" transform="translate(-20.66 -13.35)"/><polygon class="cls-2" points="6.28 7.59 6.28 9.78 7.8 9.74 7.73 7.56 6.28 7.59"/><polygon class="cls-2" points="4.61 9.79 4.54 7.82 5.6 7.61 5.61 9.77 4.61 9.79"/><polygon class="cls-2" points="8.42 9.66 8.46 7.54 9.6 7.78 9.6 9.64 8.42 9.66"/><polyline class="cls-3" points="3.94 7.47 4.51 7.44 5.79 7.13 6.54 7.12 7.81 7.1 8.39 7.09 8.83 7.18 9.57 7.34 10.13 7.39"/><polyline class="cls-2" points="3.61 10.36 4.44 10.22 9.6 10.11 10.44 10.28"/><ellipse class="cls-2" cx="7" cy="8.49" rx="0.72" ry="0.76"/><path class="cls-2" d="M26.51,27.68V25.5a1.38,1.38,0,0,1,1.15-1,1.26,1.26,0,0,1,1.2.76L29,27.64Z" transform="translate(-20.66 -13.35)"/><path class="cls-2" d="M27,27.37V25.53a.56.56,0,0,1,.64-.46s.62-.14.68.81v1.5Z" transform="translate(-20.66 -13.35)"/><path class="cls-2" d="M26.89,32.31l0-3.33a.91.91,0,0,1,.83-.63.83.83,0,0,1,.91.83l.07,3.13" transform="translate(-20.66 -13.35)"/><path class="cls-2" d="M25.54,20.39a3.27,3.27,0,0,1,.14-.7,3.49,3.49,0,0,1,.86-1.61,2.34,2.34,0,0,1,.83-.69.71.71,0,0,1,.84,0A1.81,1.81,0,0,1,29,18l.3.51.26.5.18.49.2.64,0,.14-1.54-.2-.28,0-.57,0H27l-.42.06-.62.13Z" transform="translate(-20.66 -13.35)"/><polygon class="cls-3" points="3.74 10.29 4.22 9.85 9.83 9.74 10.45 10.24 9.58 10.07 4.43 10.18 3.74 10.29"/><path class="cls-2" d="M24.6,32.35l6.14,0-.08-8.26.49-.57-.65-.52-5.6.11V21.09l-.3-.27.9-.41s.23-2.41,2.11-3.19c0,0,1.48-.36,2.41,3.13l.77.39-.25.41.05,2" transform="translate(-20.66 -13.35)"/><polyline class="cls-3" points="4.84 7.06 6.27 6.79 7.77 6.75 9.37 7"/><path d="M40.59,16.48H38.28V16h5.29v.53H41.26V23.1h-.67Z" transform="translate(-20.66 -13.35)"/><path d="M44.27,18.48h.2a1,1,0,0,0,.41-.05v1.1a1.47,1.47,0,0,1,1.46-1.14,1.14,1.14,0,0,1,1.18.87l-.5.33c-.19-.48-.43-.67-.85-.67-.75,0-1.29.57-1.29,1.6V23.1h-.61Z" transform="translate(-20.66 -13.35)"/><path d="M48.29,16.86a.47.47,0,0,1,.93,0,.47.47,0,0,1-.93,0Zm.16,1.62h.19a1,1,0,0,0,.41-.05V23.1h-.6Z" transform="translate(-20.66 -13.35)"/><path d="M50.82,18.48H51a1,1,0,0,0,.41-.05v1.09a1.8,1.8,0,0,1,1.78-1.13A1.43,1.43,0,0,1,54.77,20V23.1h-.61v-3c0-.84-.36-1.17-1.11-1.17a1.5,1.5,0,0,0-1.62,1.59V23.1h-.61Z" transform="translate(-20.66 -13.35)"/><path d="M56.36,16.86a.45.45,0,0,1,.46-.46.45.45,0,0,1,.46.46.44.44,0,0,1-.46.45A.44.44,0,0,1,56.36,16.86Zm.15,1.62h.2a1,1,0,0,0,.41-.05V23.1h-.61Z" transform="translate(-20.66 -13.35)"/><path d="M58.53,20.79a2.35,2.35,0,0,1,2.19-2.4,1.92,1.92,0,0,1,1.8,1.31V16h.19a.83.83,0,0,0,.42-.06V23.1h-.61V21.88a1.91,1.91,0,0,1-1.8,1.3A2.34,2.34,0,0,1,58.53,20.79Zm4,0a1.7,1.7,0,1,0-1.67,1.87A1.78,1.78,0,0,0,62.53,20.79Z" transform="translate(-20.66 -13.35)"/><path d="M64.51,22c0-.95.88-1.25,2-1.35.85-.09,1.12-.18,1.12-.75s-.34-1-1.1-1a1.36,1.36,0,0,0-1.35.7l-.43-.25a1.91,1.91,0,0,1,1.85-.95A1.44,1.44,0,0,1,68.22,20V23.1h-.6v-.87a1.6,1.6,0,0,1-1.63.95C65.08,23.18,64.51,22.74,64.51,22Zm3.1-.68v-.72c-.16.31-.44.39-1,.46-.84.09-1.45.26-1.45.9s.35.8,1,.8A1.35,1.35,0,0,0,67.61,21.29Z" transform="translate(-20.66 -13.35)"/><path d="M69.61,20.79a2.35,2.35,0,0,1,2.19-2.4,1.92,1.92,0,0,1,1.8,1.31V16h.19a.83.83,0,0,0,.42-.06V23.1H73.6V21.88a1.91,1.91,0,0,1-1.8,1.3A2.34,2.34,0,0,1,69.61,20.79Zm4,0a1.7,1.7,0,1,0-1.67,1.87A1.78,1.78,0,0,0,73.61,20.79Z" transform="translate(-20.66 -13.35)"/><path d="M42.22,26.14A3.63,3.63,0,0,1,45,27.33l-1.1,1a2.43,2.43,0,0,0-1.69-.73,2,2,0,0,0,0,3.93,2.43,2.43,0,0,0,1.69-.73l1.06,1a3.7,3.7,0,0,1-2.75,1.19,3.47,3.47,0,1,1,0-6.93Z" transform="translate(-20.66 -13.35)"/><path d="M45.78,26.35h1.58v4.08c0,.87.41,1.17,1,1.17s1-.3,1-1.17V26.35h1.6v4.32a2.36,2.36,0,0,1-2.58,2.4,2.34,2.34,0,0,1-2.55-2.4Z" transform="translate(-20.66 -13.35)"/><path d="M52,26.35h2.62a1.88,1.88,0,0,1,2,1.82,1.56,1.56,0,0,1-.7,1.34v0a1.83,1.83,0,0,1,1,1.6,1.79,1.79,0,0,1-2,1.73H52Zm2.34,2.59a.6.6,0,1,0,0-1.2h-.76v1.2Zm.21,2.5a.55.55,0,0,0,.6-.57.57.57,0,0,0-.6-.57h-1v1.14Z" transform="translate(-20.66 -13.35)"/><path d="M60,26.14h.28l3.18,6.72H61.79l-.32-.68H58.9l-.32.68H56.87Zm.88,4.91-.74-1.65h0l-.76,1.65Z" transform="translate(-20.66 -13.35)"/></svg>