<svg id="Layer_1" data-name="Layer 1" xmlns="http://www.w3.org/2000/svg" viewBox="0 0 71.12 35.6"><defs><style>.cls-1{fill:#fff;stroke:#231f20;stroke-width:0.5px;}.cls-1,.cls-2{stroke-miterlimit:10;}.cls-2,.cls-3{fill:none;}.cls-2{stroke:#000;stroke-width:0.25px;}</style></defs><path class="cls-1" d="M7,41.52v-24S10,7,19.62,6.63c0,0,9.29-.76,13.17,8.27V41.71Z" transform="translate(-6.77 -6.36)"/><polygon class="cls-2" points="7.67 12.57 9.55 12.25 11.21 11.88 12.8 11.88 15.45 11.82 16.43 11.84 17.23 12.05 18.24 12.29 19.21 12.39 19.47 12.44 19.03 13.21 19.05 15.26 19.12 16.85 15.62 16.9 11.5 16.98 8.27 17.05 8.03 16.92 8.03 12.93 7.67 12.57"/><polyline class="cls-2" points="8.13 16.91 6.82 18.14 7.51 20.08 7.6 34.19 7.46 35.04"/><path class="cls-2" d="M20.23,19.32" transform="translate(-6.77 -6.36)"/><path class="cls-2" d="M23,38.46,22.9,35a2.29,2.29,0,0,0-2.59-2.14A2.5,2.5,0,0,0,18,34.77l-.17,3.66h-1L16.66,25.6l7.17-.12.15,13Z" transform="translate(-6.77 -6.36)"/><polygon class="cls-2" points="12.03 12.74 12.03 17.01 15.01 16.95 14.88 12.68 12.03 12.74"/><polygon class="cls-2" points="8.77 17.03 8.64 13.19 10.7 12.78 10.73 17 8.77 17.03"/><polygon class="cls-2" points="16.21 16.78 16.3 12.63 18.52 13.1 18.52 16.74 16.21 16.78"/><polyline class="cls-3" points="7.46 12.51 8.57 12.44 11.08 11.84 12.55 11.81 15.03 11.78 16.17 11.77 17.02 11.93 18.47 12.25 19.57 12.34"/><polyline class="cls-2" points="6.82 18.14 8.44 17.87 18.53 17.66 20.16 17.99"/><ellipse class="cls-2" cx="13.45" cy="14.49" rx="1.41" ry="1.48"/><path class="cls-2" d="M18,32.28V28a2.66,2.66,0,0,1,2.25-1.94,2.44,2.44,0,0,1,2.36,1.47l.16,4.66Z" transform="translate(-6.77 -6.36)"/><path class="cls-2" d="M19,31.67v-3.6a1.1,1.1,0,0,1,1.25-.9s1.22-.27,1.34,1.59v2.93Z" transform="translate(-6.77 -6.36)"/><path class="cls-2" d="M18.71,41.34l.06-6.52a1.79,1.79,0,0,1,1.63-1.23,1.62,1.62,0,0,1,1.77,1.62l.13,6.12" transform="translate(-6.77 -6.36)"/><path class="cls-2" d="M16.08,18a7.05,7.05,0,0,1,.26-1.38A6.85,6.85,0,0,1,18,13.51a4.61,4.61,0,0,1,1.63-1.36,1.38,1.38,0,0,1,1.63,0,3.48,3.48,0,0,1,1.5,1.29l.6,1,.51,1,.35.95.39,1.26.08.27-3-.39-.54-.05-1.13,0-1.12,0-.84.12-1.2.24Z" transform="translate(-6.77 -6.36)"/><polygon class="cls-3" points="7.07 18.01 8.01 17.15 18.97 16.94 20.17 17.91 18.48 17.58 8.42 17.8 7.07 18.01"/><path class="cls-2" d="M14.22,41.4l12,.09-.15-16.14,1-1.11-1.27-1-11,.21v-4l-.59-.52L16,18.06s.45-4.71,4.13-6.24c0,0,2.9-.7,4.71,6.12l1.5.76-.49.8L26,23.43" transform="translate(-6.77 -6.36)"/><polyline class="cls-3" points="9.22 11.7 12.02 11.18 14.95 11.08 18.07 11.58"/><path d="M40.3,22.83H37.72v-.59h5.92v.59H41.05v7.4H40.3Z" transform="translate(-6.77 -6.36)"/><path d="M44.43,25.07h.21A1,1,0,0,0,45.1,25v1.24A1.66,1.66,0,0,1,46.74,25a1.28,1.28,0,0,1,1.32,1l-.56.37c-.21-.54-.48-.75-1-.75-.84,0-1.45.64-1.45,1.79v2.88h-.67Z" transform="translate(-6.77 -6.36)"/><path d="M48.92,23.25a.52.52,0,1,1,.51.51A.5.5,0,0,1,48.92,23.25Zm.17,1.82h.22a1,1,0,0,0,.46-.06v5.22h-.68Z" transform="translate(-6.77 -6.36)"/><path d="M51.75,25.07H52a1,1,0,0,0,.46-.06v1.22a2,2,0,0,1,2-1.26,1.6,1.6,0,0,1,1.75,1.82v3.44h-.68V26.88c0-.94-.4-1.31-1.24-1.31a1.68,1.68,0,0,0-1.81,1.78v2.88h-.68Z" transform="translate(-6.77 -6.36)"/><path d="M57.94,23.25a.52.52,0,1,1,.51.51A.5.5,0,0,1,57.94,23.25Zm.17,1.82h.22a1,1,0,0,0,.46-.06v5.22h-.68Z" transform="translate(-6.77 -6.36)"/><path d="M60.37,27.65A2.61,2.61,0,0,1,62.81,25a2.16,2.16,0,0,1,2,1.46V22.24H65a1.1,1.1,0,0,0,.46-.06v8.05h-.67V28.87a2.16,2.16,0,0,1-2,1.46A2.61,2.61,0,0,1,60.37,27.65Zm4.47,0A1.9,1.9,0,1,0,63,29.75,2,2,0,0,0,64.84,27.65Z" transform="translate(-6.77 -6.36)"/><path d="M67.06,29c0-1.06,1-1.39,2.2-1.51,1-.1,1.26-.2,1.26-.84s-.39-1.09-1.23-1.09a1.53,1.53,0,0,0-1.51.78L67.3,26A2.13,2.13,0,0,1,69.37,25a1.6,1.6,0,0,1,1.83,1.78v3.48h-.66v-1a1.82,1.82,0,0,1-1.84,1.07C67.69,30.33,67.06,29.83,67.06,29Zm3.46-.76v-.8c-.18.34-.49.44-1.17.51-.95.1-1.63.29-1.63,1,0,.56.39.9,1.13.9A1.51,1.51,0,0,0,70.52,28.21Z" transform="translate(-6.77 -6.36)"/><path d="M72.75,27.65A2.62,2.62,0,0,1,75.2,25a2.13,2.13,0,0,1,2,1.46V22.24h.22a1.1,1.1,0,0,0,.46-.06v8.05h-.68V28.87a2.13,2.13,0,0,1-2,1.46A2.62,2.62,0,0,1,72.75,27.65Zm4.48,0a1.9,1.9,0,1,0-1.87,2.1A2,2,0,0,0,77.23,27.65Z" transform="translate(-6.77 -6.36)"/><path d="M42.13,33.63A4.09,4.09,0,0,1,45.25,35L44,36.13a2.68,2.68,0,0,0-1.89-.81,2.19,2.19,0,0,0,0,4.38A2.68,2.68,0,0,0,44,38.89l1.19,1.16a4.1,4.1,0,0,1-3.08,1.33,3.88,3.88,0,1,1,0-7.75Z" transform="translate(-6.77 -6.36)"/><path d="M46.11,33.87h1.77v4.56c0,1,.46,1.31,1.08,1.31s1.1-.34,1.1-1.31V33.87h1.78V38.7A2.64,2.64,0,0,1,49,41.38a2.61,2.61,0,0,1-2.85-2.68Z" transform="translate(-6.77 -6.36)"/><path d="M53,33.87h2.93a2.1,2.1,0,0,1,2.18,2,1.73,1.73,0,0,1-.79,1.49v0a2.06,2.06,0,0,1,1.07,1.8,2,2,0,0,1-2.18,1.92H53Zm2.61,2.9a.68.68,0,1,0,0-1.35h-.84v1.35Zm.24,2.79a.61.61,0,0,0,.67-.63.64.64,0,0,0-.67-.65H54.78v1.28Z" transform="translate(-6.77 -6.36)"/><path d="M62.05,33.63h.32l3.56,7.51H64l-.36-.75H60.78l-.35.75H58.51Zm1,5.49-.83-1.84h0l-.85,1.84Z" transform="translate(-6.77 -6.36)"/></svg>